# xmcd
#
# Track frame offsets:
# 150
# 18391
# 36228
# 52380
# 73278
# 88933
# 111798
# 129591
# 148745
# 167395
# 184877
# 218446
# 332969
#
# Disc length: 4440 seconds
#
#
# Revision: 4
# Processed by: cddbd v1.5.2PL0 Copyright (c) Steve Scherf et al.
# Submitted via: FreeRIP 2.951 
#
DISCID=c811560d
DTITLE=Corinne Bailey Rae - Corinne Bailey Rae
DYEAR=2006
DGENRE=Blues
TTITLE0=Like A Star
TTITLE1=Enchantment
TTITLE2=Put Your Records On
TTITLE3=Till It Happens To You
TTITLE4=Trouble Sleeping
TTITLE5=Call Me When You Get This
TTITLE6=Choux Pastry Heart
TTITLE7=Breathless
TTITLE8=I'd Like To
TTITLE9=Butterfly
TTITLE10=Seasons Change
TTITLE11=vid
TTITLE12=out
EXTD=
EXTT0=
EXTT1=
EXTT2=
EXTT3=
EXTT4=
EXTT5=
EXTT6=
EXTT7=
EXTT8=
EXTT9=
EXTT10=
EXTT11=
EXTT12=
PLAYORDER=
